HIERARCHY
ROOT SpineBase
{
  OFFSET 0.000000 0.000000 0.000000
  CHANNELS 6 Xposition Yposition Zposition Zrotation Xrotation Yrotation
  JOINT SpineMid
  {
    OFFSET 0.000000 26.961326 0.000000
    CHANNELS 3 Zrotation Xrotation Yrotation
    JOINT SpineShoulder
    {
      OFFSET 0.002395 20.138187 -0.571543
      CHANNELS 3 Zrotation Xrotation Yrotation
      JOINT Neck
      {
        OFFSET -0.004945 6.692479 -0.462310
        CHANNELS 3 Zrotation Xrotation Yrotation
        JOINT Head
        {
          OFFSET -2.439898 11.877293 1.280388
          CHANNELS 3 Zrotation Xrotation Yrotation
          End Site
          {
            OFFSET 0 0 0
          }
        }
      }
      JOINT ShoulderLeft
      {
        OFFSET -13.444931 -3.427814 4.007109
        CHANNELS 3 Zrotation Xrotation Yrotation
        JOINT ElbowLeft
        {
          OFFSET -1.075149 -23.351285 0.210624
          CHANNELS 3 Zrotation Xrotation Yrotation
          JOINT WristLeft
          {
            OFFSET -1.162910 -19.279584 -5.115071
            CHANNELS 3 Zrotation Xrotation Yrotation
            JOINT HandLeft
            {
              OFFSET 0.474752 -5.634311 -1.257022
              CHANNELS 3 Zrotation Xrotation Yrotation
              JOINT HandTipLeft
              {
                OFFSET 0.280129 -5.392349 -2.103549
                CHANNELS 3 Zrotation Xrotation Yrotation
                End Site
                {
                  OFFSET 0 0 0
                }
              }
              JOINT ThumbLeft
              {
                OFFSET 3.307800 1.508201 -1.767205
                CHANNELS 3 Zrotation Xrotation Yrotation
                End Site
                {
                  OFFSET 0 0 0
                }
              }
            }
          }
        }
      }
      JOINT ShoulderRight
      {
        OFFSET 12.456807 -2.577990 -6.045219
        CHANNELS 3 Zrotation Xrotation Yrotation
        JOINT ElbowRight
        {
          OFFSET 4.218754 -22.736395 -3.116694
          CHANNELS 3 Zrotation Xrotation Yrotation
          JOINT WristRight
          {
            OFFSET -0.122723 -19.636611 -7.007121
            CHANNELS 3 Zrotation Xrotation Yrotation
            JOINT HandRight
            {
              OFFSET -1.388029 -5.005123 -0.662583
              CHANNELS 3 Zrotation Xrotation Yrotation
              JOINT HandTipRight
              {
                OFFSET -0.194698 -5.113761 -1.520064
                CHANNELS 3 Zrotation Xrotation Yrotation
                End Site
                {
                  OFFSET 0 0 0
                }
              }
              JOINT ThumbRight
              {
                OFFSET -2.345664 2.289289 0.570880
                CHANNELS 3 Zrotation Xrotation Yrotation
                End Site
                {
                  OFFSET 0 0 0
                }
              }
            }
          }
        }
      }
    }
  }
  JOINT HipLeft
  {
    OFFSET -5.836761 0.365608 -1.441841
    CHANNELS 3 Zrotation Xrotation Yrotation
    JOINT KneeLeft
    {
      OFFSET 5.287916 -31.071849 1.201898
      CHANNELS 3 Zrotation Xrotation Yrotation
      JOINT AnkleLeft
      {
        OFFSET 4.592847 -31.216141 4.958244
        CHANNELS 3 Zrotation Xrotation Yrotation
        JOINT FootLeft
        {
          OFFSET -0.499575 -2.564935 -8.594371
          CHANNELS 3 Zrotation Xrotation Yrotation
          End Site
          {
            OFFSET 0 0 0
          }
        }
      }
    }
  }
  JOINT HipRight
  {
    OFFSET 5.371804 1.397135 -4.503693
    CHANNELS 3 Zrotation Xrotation Yrotation
    JOINT KneeRight
    {
      OFFSET 6.123994 -26.530709 -1.869700
      CHANNELS 3 Zrotation Xrotation Yrotation
      JOINT AnkleRight
      {
        OFFSET 4.647162 -35.113060 4.194691
        CHANNELS 3 Zrotation Xrotation Yrotation
        JOINT FootRight
        {
          OFFSET -5.705243 -5.583513 1.372541
          CHANNELS 3 Zrotation Xrotation Yrotation
          End Site
          {
            OFFSET 0 0 0
          }
        }
      }
    }
  }
}
MOTION
Frames: 11
Frame Time: 0.033333
26.798625 68.690355 361.688164 0.939394 2.046353 19.588094 0.036915 -0.256557 -19.570870 -0.189406 0.042710 0.028368 2.916481 -5.278088 -0.946677 0.000000 0.000000 0.000000 -66.622355 59.604567 35.594893 95.993952 43.898610 16.292282 -49.285493 -24.872176 -2.827071 30.324858 -20.588060 5.356709 0.000000 0.000000 0.000000 0.000000 0.000000 0.000000 -2.730833 17.821733 4.046202 -108.883675 4.755257 30.631269 50.215432 54.344244 -2.893237 -18.946074 -26.367706 3.647732 0.000000 0.000000 0.000000 0.000000 0.000000 0.000000 -3.455303 -0.541980 -19.681187 2.133784 -0.374211 0.025746 -3.663669 4.887651 9.967502 0.000000 0.000000 0.000000 -2.336309 2.220581 -18.705196 2.734647 -4.855769 -0.901637 11.379520 7.701885 -4.830535 0.000000 0.000000 0.000000
26.723353 68.693107 361.687102 0.792823 2.026944 19.637145 0.108868 -0.256718 -19.618514 -0.206101 0.015011 0.023947 3.145187 -5.091008 -0.917613 0.000000 0.000000 0.000000 -68.511856 58.690492 36.281743 97.126180 44.905861 15.977961 -48.774350 -27.613107 -2.124088 31.548512 -24.386556 7.126361 0.000000 0.000000 0.000000 0.000000 0.000000 0.000000 -2.348660 18.319309 4.067876 -105.313269 11.255337 35.382736 39.656009 38.618940 -8.351095 -17.697327 -26.923170 2.776739 0.000000 0.000000 0.000000 0.000000 0.000000 0.000000 -3.331235 -0.773877 -19.762499 2.083928 -0.174608 0.053908 -3.665915 4.890094 9.973096 0.000000 0.000000 0.000000 -1.872938 2.116564 -18.767185 2.281975 -4.982074 -0.932045 9.215648 6.450739 -3.456707 0.000000 0.000000 0.000000
26.700262 68.706381 361.649732 0.749692 2.079755 19.712356 0.092215 -0.282052 -19.694671 -0.193891 0.016258 0.022927 3.264493 -5.006155 -0.897811 0.000000 0.000000 0.000000 -70.139554 57.998696 36.873804 98.655928 43.304428 17.516371 -45.970669 -22.424405 -0.894071 31.370475 -30.744699 11.474702 0.000000 0.000000 0.000000 0.000000 0.000000 0.000000 -2.338417 18.872180 4.191424 -104.545123 16.521529 39.999126 32.950587 28.102897 -13.102401 -16.907442 -26.081704 3.114957 0.000000 0.000000 0.000000 0.000000 0.000000 0.000000 -3.269481 -0.552513 -19.789042 2.141379 -0.454419 0.013952 -3.674515 4.897606 9.995236 0.000000 0.000000 0.000000 -1.928455 1.882409 -18.885938 2.377829 -4.899151 -0.893491 7.694078 6.427153 -3.540750 0.000000 0.000000 0.000000
26.701557 68.724094 361.586404 0.754019 2.181063 19.779189 0.026235 -0.335500 -19.763708 -0.190819 0.031479 0.021482 3.360297 -4.985382 -0.883572 0.000000 0.000000 0.000000 -71.421210 57.527900 37.380323 99.035541 41.574914 19.210739 -43.229970 -17.537831 -0.144808 32.185823 -35.250710 15.308180 0.000000 0.000000 0.000000 0.000000 0.000000 0.000000 -2.203010 19.510457 4.297974 -103.533813 20.437602 42.539725 25.598732 19.747202 -18.513096 -12.615809 -22.475732 8.334294 0.000000 0.000000 0.000000 0.000000 0.000000 0.000000 -3.281010 -0.502770 -19.835301 2.162717 -0.595970 -0.006487 -3.694209 4.906397 10.049220 0.000000 0.000000 0.000000 -2.250993 0.422254 -19.299511 1.807564 -3.366382 -0.651716 8.520821 5.895714 -2.932415 0.000000 0.000000 0.000000
26.733275 68.744743 361.505424 0.815007 2.317427 19.834357 -0.074989 -0.397896 -19.822216 -0.172328 0.057562 0.022371 3.314911 -5.059518 -0.878620 0.000000 0.000000 0.000000 -70.994279 59.182378 38.326384 95.632754 38.182274 22.565399 -38.014233 -13.855286 1.624156 29.829529 -44.928878 21.319810 0.000000 0.000000 0.000000 0.000000 0.000000 0.000000 -2.032654 20.010220 4.354424 -101.863225 22.637200 42.767433 16.676175 16.612285 -23.196427 -9.184993 -22.618254 9.087715 0.000000 0.000000 0.000000 0.000000 0.000000 0.000000 -3.528700 -0.898904 -19.963831 2.198475 -0.270362 0.044079 -3.712441 4.917943 10.097824 0.000000 0.000000 0.000000 -2.443457 -0.087852 -19.464574 1.481390 -2.975716 -0.608640 7.724834 5.222205 -2.248081 0.000000 0.000000 0.000000
26.796616 68.755768 361.416593 0.932286 2.470606 19.915553 -0.208203 -0.444939 -19.908461 -0.135262 0.103499 0.025594 3.240648 -5.250044 -0.888247 0.000000 0.000000 0.000000 -71.203429 58.996865 38.236638 95.095676 36.972426 23.422235 -32.222769 -11.371064 3.596878 29.327669 -48.735432 25.334085 0.000000 0.000000 0.000000 0.000000 0.000000 0.000000 -1.788081 20.253128 4.329403 -100.935102 22.573787 41.407329 13.349734 16.690641 -24.238737 -11.885671 -26.909095 2.196461 0.000000 0.000000 0.000000 0.000000 0.000000 0.000000 -3.715715 -0.720382 -20.013519 2.314985 -0.524258 0.010891 -3.728386 4.931262 10.139028 0.000000 0.000000 0.000000 -3.114206 -0.938363 -19.761484 1.586622 -2.024817 -0.441111 7.030292 4.447951 -1.557244 0.000000 0.000000 0.000000
26.852296 68.774118 361.355070 1.035828 2.590347 19.980590 -0.335904 -0.490861 -19.978621 -0.101238 0.146135 0.028233 3.135001 -5.392311 -0.895020 0.000000 0.000000 0.000000 -72.210268 55.820691 36.388651 97.743076 38.885622 20.722752 -23.556783 -9.424042 6.624253 20.549665 -39.987458 17.083074 0.000000 0.000000 0.000000 0.000000 0.000000 0.000000 -1.660149 20.814751 4.398067 -100.853772 19.325180 37.145395 14.927299 23.977037 -19.324480 -19.477095 -32.772430 -9.751673 0.000000 0.000000 0.000000 0.000000 0.000000 0.000000 -4.093795 -0.676695 -20.097464 2.579414 -0.550977 0.018355 -3.744124 4.941550 10.180801 0.000000 0.000000 0.000000 -3.640353 -1.165020 -19.890103 2.037178 -1.698850 -0.376690 6.097349 4.075207 -1.359003 0.000000 0.000000 0.000000
26.916076 68.782481 361.266671 1.150092 2.736960 20.054664 -0.451505 -0.537523 -20.057771 -0.067527 0.173895 0.031832 3.010888 -5.494716 -0.893875 0.000000 0.000000 0.000000 -73.267001 53.993912 35.562330 100.346106 40.801369 18.691528 -23.169371 -9.797003 6.901630 18.332162 -32.146841 11.216376 0.000000 0.000000 0.000000 0.000000 0.000000 0.000000 -1.544232 21.416388 4.470483 -101.076412 17.618947 34.544066 14.566588 27.609206 -16.936094 -14.753965 -32.082824 -5.082842 0.000000 0.000000 0.000000 0.000000 0.000000 0.000000 -4.442793 -0.366689 -20.139151 2.896602 -0.865176 -0.013238 -3.755601 4.960044 10.206875 0.000000 0.000000 0.000000 -4.260515 -1.230917 -19.988429 2.722127 -1.492698 -0.336944 4.925050 4.060003 -1.644331 0.000000 0.000000 0.000000
26.990941 68.791157 361.176019 1.286035 2.870570 20.167010 -0.536124 -0.564336 -20.174101 -0.013146 0.186944 0.039088 2.758259 -5.578821 -0.893168 0.000000 0.000000 0.000000 -74.531619 53.095627 35.519654 104.350869 43.039097 16.685507 -32.428344 -13.728778 4.104346 23.183333 -24.156163 6.991799 0.000000 0.000000 0.000000 0.000000 0.000000 0.000000 -1.571774 21.846858 4.528024 -102.219823 15.987698 32.797697 16.037728 29.593421 -15.059404 -8.374643 -26.409251 6.178313 0.000000 0.000000 0.000000 0.000000 0.000000 0.000000 -4.902715 -0.494567 -20.308088 3.144578 -0.709070 0.020356 -3.763721 4.966692 10.227873 0.000000 0.000000 0.000000 -4.902636 -0.888277 -20.024237 3.623193 -1.791504 -0.386239 4.640446 4.649851 -2.266742 0.000000 0.000000 0.000000
27.001437 68.839711 361.118952 1.305361 2.947874 20.147409 -0.551943 -0.591575 -20.155576 0.004489 0.180073 0.041241 2.631935 -5.590979 -0.885589 0.000000 0.000000 0.000000 -74.838122 51.935575 34.750549 107.930603 45.237192 13.723407 -34.822218 -17.253561 4.072394 21.048665 -16.317446 1.495920 0.000000 0.000000 0.000000 0.000000 0.000000 0.000000 -1.694487 22.220399 4.631001 -103.568227 14.542692 31.529090 18.765035 28.786425 -14.677614 -5.571775 -20.397648 13.958027 0.000000 0.000000 0.000000 0.000000 0.000000 0.000000 -5.146956 -0.679442 -20.339625 3.291264 -0.527394 0.052477 -3.772826 4.975283 10.250956 0.000000 0.000000 0.000000 -5.341697 -0.981850 -20.035041 4.168134 -1.618805 -0.353460 4.049786 4.971866 -2.741494 0.000000 0.000000 0.000000
27.006716 68.843231 361.051637 1.285633 3.015254 20.164741 -0.522224 -0.598109 -20.172299 -0.020551 0.132678 0.039904 2.656261 -5.550085 -0.872059 0.000000 0.000000 0.000000 -76.236051 51.789341 35.497533 111.718931 47.023879 12.187515 -47.640419 -18.090872 -1.716119 28.256814 -6.172070 -2.221586 0.000000 0.000000 0.000000 0.000000 0.000000 0.000000 -1.716925 22.649955 4.729279 -104.424003 13.198301 29.904623 19.246995 29.109599 -14.039557 -3.283004 -17.257203 18.032946 0.000000 0.000000 0.000000 0.000000 0.000000 0.000000 -5.301941 -1.082195 -20.438718 3.315553 -0.157974 0.105448 -3.780022 4.988767 10.266519 0.000000 0.000000 0.000000 -5.781117 -0.142425 -19.828140 5.339659 -2.497484 -0.481986 3.765926 5.342736 -3.000967 0.000000 0.000000 0.000000
